HIERARCHY
ROOT Hips
{
	OFFSET 0.00000 0.00000 0.00000
	CHANNELS 6 Xposition Yposition Zposition Zrotation Yrotation Xrotation 
	JOINT LHipJoint
	{
		OFFSET 0 0 0
		CHANNELS 3 Zrotation Yrotation Xrotation
		JOINT LeftHip
		{
			OFFSET 1.62067 -1.77917 0.70989
			CHANNELS 3 Zrotation Yrotation Xrotation
			JOINT LeftKnee
			{
				OFFSET 2.34532 -6.44371 0.00000
				CHANNELS 3 Zrotation Yrotation Xrotation
				JOINT LeftAnkle
				{
					OFFSET 2.74224 -7.53425 0.00000
					CHANNELS 3 Zrotation Yrotation Xrotation
					JOINT LeftToe
					{
						OFFSET 0.17032 -0.46794 2.08086
						CHANNELS 3 Zrotation Yrotation Xrotation
						End Site
						{
							OFFSET 0.00000 -0.00000 1.07476
						}
					}
				}
			}
		}
	}
	JOINT RHipJoint
	{
		OFFSET 0 0 0
		CHANNELS 3 Zrotation Yrotation Xrotation
		JOINT RightHip
		{
			OFFSET -1.55811 -1.77917 0.70989
			CHANNELS 3 Zrotation Yrotation Xrotation
			JOINT RightKnee
			{
				OFFSET -2.33243 -6.40830 0.00000
				CHANNELS 3 Zrotation Yrotation Xrotation
				JOINT RightAnkle
				{
					OFFSET -2.78798 -7.65993 0.00000
					CHANNELS 3 Zrotation Yrotation Xrotation
					JOINT RightToe
					{
						OFFSET -0.22707 -0.62388 2.04059
						CHANNELS 3 Zrotation Yrotation Xrotation
						End Site
						{
							OFFSET -0.00000 -0.00000 1.07030
						}
					}
				}
			}
		}
	}
	JOINT lowerback
	{
		OFFSET 0 0 0
		CHANNELS 3 Zrotation Yrotation Xrotation
		JOINT Chest
		{
			OFFSET 0.02203 1.91565 0.07161
			CHANNELS 3 Zrotation Yrotation Xrotation
			JOINT Chest2
			{
				OFFSET 0.01740 1.90525 0.11636
				CHANNELS 3 Zrotation Yrotation Xrotation
				JOINT lowerneck
				{
					OFFSET 0 0 0
					CHANNELS 3 Zrotation Yrotation Xrotation
					JOINT Neck
					{
						OFFSET -0.10841 1.83566 0.05067
						CHANNELS 3 Zrotation Yrotation Xrotation
						JOINT Head
						{
							OFFSET 0.06601 1.74760 -0.50505
							CHANNELS 3 Zrotation Yrotation Xrotation
							End Site
							{
								OFFSET 0.03102 1.85215 -0.17697
							}
						}
					}
				}
				JOINT LeftCollar
				{
					OFFSET 0 0 0
					CHANNELS 3 Zrotation Yrotation Xrotation
					JOINT LeftShoulder
					{
						OFFSET 2.87059 1.35470 0.16111
CHANNELS 3 Zrotation Xrotation Yrotation
						JOINT LeftElbow
						{
OFFSET 0 -5.435920 0.000000
CHANNELS 3 Zrotation Xrotation Yrotation
							JOINT LeftWrist
							{
OFFSET 0 -3.254600 0.000000
CHANNELS 3 Zrotation Xrotation Yrotation
								JOINT lhand
								{
									OFFSET 0 0 0
CHANNELS 3 Zrotation Xrotation Yrotation
									JOINT LFingers
									{
OFFSET 0 -0.498240 0.000000
CHANNELS 3 Zrotation Xrotation Yrotation
										End Site
										{
OFFSET 0 -0.401700 0.000000
										}
									}
								}
								JOINT LThumb
								{
OFFSET 0 0.000000 0.000000
CHANNELS 3 Zrotation Xrotation Yrotation
									End Site
									{
OFFSET 0 -0.407830 0.407830
									}
								}
							}
						}
					}
				}
				JOINT RightCollar
				{
					OFFSET 0 0 0
					CHANNELS 3 Zrotation Yrotation Xrotation
					JOINT RightShoulder
					{
						OFFSET -2.86643 1.23488 0.45957
CHANNELS 3 Zrotation Xrotation Yrotation
						JOINT RightElbow
						{
OFFSET 0 -5.338300 0.000000
CHANNELS 3 Zrotation Xrotation Yrotation
							JOINT RightWrist
							{
OFFSET 0 -3.231480 0.000000
CHANNELS 3 Zrotation Xrotation Yrotation
								JOINT rhand
								{
									OFFSET 0 0 0
CHANNELS 3 Zrotation Xrotation Yrotation
									JOINT RFingers
									{
OFFSET 0 -0.463640 0.000000
CHANNELS 3 Zrotation Xrotation Yrotation
										End Site
										{
OFFSET 0 -0.373800 0.000000
										}
									}
								}
								JOINT RThumb
								{
OFFSET 0 0.000000 0.000000
CHANNELS 3 Zrotation Xrotation Yrotation
									End Site
									{
OFFSET 0 -0.379510 0.379510
									}
								}
							}
						}
					}
				}
			}
		}
	}
}
MOTION
Frames: 6
Frame Time: 0.008333333333333333
3.764400 17.433000 3.671500 -1.389300 -7.821000 21.367200 0.000000 0.000000 0.000000 -22.600300 -11.175300 -26.822200 1.838500 8.521300 24.309100 0.818400 -0.018900 -17.095500 0.236400 3.128900 8.637700 0.000000 0.000000 0.000000 0.497500 2.366100 5.896600 0.000000 0.000000 -0.000000 -0.150000 -16.844400 -25.210800 -4.991100 -13.373800 40.784300 7.317500 1.207400 -11.336000 1.112000 1.200800 -13.821700 -2.830500 -0.046600 -8.390600 13.055100 18.268100 -2.336700 7.622700 22.906400 11.534200 1.632000 12.155400 4.444300 -0.000000 -0.000000 0.000000 131.919100 -10.568400 26.396200 15.352100 -24.634300 3.371300 27.727800 -35.709900 20.497100 0.000000 0.000000 0.000000 -7.125000 0.000000 0.000000 -0.500900 7.085000 -0.435300 -0.000000 -0.000000 0.000000 -105.884800 18.890600 -23.468200 -140.987800 -47.473700 -102.292200 -5.645300 -55.317200 46.074900 0.000000 0.000000 0.000000 7.125000 0.000000 -0.000000 50.757500 70.146300 -33.207200
3.765157 17.432954 3.668943 -1.260515 -8.271497 21.754462 0.000000 0.000000 0.000000 -22.798194 -11.131707 -27.273854 1.835007 8.513556 24.285024 0.822714 0.137539 -17.195611 0.225240 3.055038 8.431931 0.000000 0.000000 0.000000 0.139915 2.779968 5.385511 0.000000 0.000000 0.000000 -0.522666 -14.626542 -25.634520 -5.458249 -13.881676 42.766185 7.062936 1.343391 -11.515623 1.005249 1.377939 -13.979899 -2.793174 0.052512 -8.450120 13.170011 18.227995 -2.242573 7.411310 22.889809 11.407013 1.546563 12.134413 4.426534 0.000000 0.000000 0.000000 132.060832 -10.515058 26.514278 15.334610 -24.610239 3.364092 27.371831 -35.740438 20.876901 0.000000 0.000000 0.000000 -7.125000 0.000000 0.000000 -0.773065 6.738785 -0.677156 0.000000 0.000000 0.000000 -105.912523 18.927782 -23.457079 -140.931340 -47.508308 -102.250637 -4.442018 -56.094544 45.805760 0.000000 0.000000 0.000000 7.125000 0.000000 0.000000 51.227946 69.581458 -32.982121
3.760342 17.428680 3.679290 -1.313832 -7.847910 21.486142 0.000000 0.000000 0.000000 -22.688035 -11.108562 -26.996270 1.849205 8.544562 24.380742 0.827587 -0.154307 -17.145306 0.222768 3.038298 8.385494 0.000000 0.000000 0.000000 0.418167 2.351333 5.804469 0.000000 0.000000 0.000000 -1.002185 -12.026520 -26.773982 -6.143259 -14.564023 45.550844 7.277619 1.223639 -11.325820 0.989380 1.224570 -13.944955 -2.938755 -0.046454 -8.534609 13.165005 18.175549 -2.429166 7.415199 22.778671 11.606335 1.572804 12.091952 4.516343 0.000000 0.000000 0.000000 132.096403 -10.605048 26.775186 15.290870 -24.549806 3.345868 27.600881 -35.729182 21.085364 0.000000 0.000000 0.000000 -7.125000 0.000000 0.000000 -0.654496 6.467665 -0.576609 0.000000 0.000000 0.000000 -105.958311 18.853031 -23.517694 -140.827086 -47.572159 -102.173692 -4.212154 -56.198624 45.944713 0.000000 0.000000 0.000000 7.125000 0.000000 0.000000 51.733422 69.587876 -33.372729
3.760214 17.425634 3.689505 -1.361740 -7.733047 21.456459 0.000000 0.000000 0.000000 -22.673209 -10.943832 -27.033692 1.866414 8.582098 24.496515 0.848111 -0.432524 -17.265810 0.227988 3.073107 8.482364 0.000000 0.000000 0.000000 0.534066 2.237815 5.904122 0.000000 0.000000 0.000000 -1.017390 -11.947945 -26.811492 -6.128848 -14.551522 45.495698 7.472348 1.206562 -11.416466 0.929935 1.176855 -13.885404 -3.111713 -0.086670 -8.422357 13.224930 18.191166 -2.505170 7.246462 22.803940 11.547423 1.528511 12.095851 4.536233 0.000000 0.000000 0.000000 132.212586 -10.382879 26.492018 15.356704 -24.640639 3.373264 27.434210 -35.906310 20.757918 0.000000 0.000000 0.000000 -7.125000 0.000000 0.000000 -0.719029 6.856290 -0.628041 0.000000 0.000000 0.000000 -105.942097 18.805424 -23.671754 -140.737212 -47.627006 -102.107350 -5.312692 -55.388854 46.261165 0.000000 0.000000 0.000000 7.125000 0.000000 0.000000 51.469543 70.145889 -33.749350
3.760199 17.423036 3.696851 -1.396056 -7.602355 21.442955 0.000000 0.000000 0.000000 -22.622819 -10.943815 -27.041362 1.877533 8.606177 24.570878 0.855708 -0.593563 -17.292956 0.246529 3.194806 8.821675 0.000000 0.000000 0.000000 0.622582 2.104513 5.986890 0.000000 0.000000 0.000000 -0.926792 -12.384799 -26.527669 -5.972662 -14.400634 44.869723 7.627407 1.221875 -11.455564 0.846367 1.180601 -13.860915 -3.287091 -0.101375 -8.373269 13.123154 18.128494 -2.615233 7.252299 22.717262 11.401024 1.533113 12.044017 4.492596 0.000000 0.000000 0.000000 132.329852 -10.449832 26.667841 15.342186 -24.620595 3.367188 27.134903 -35.630839 20.576107 0.000000 0.000000 0.000000 -7.125000 0.000000 0.000000 -0.886585 7.110687 -0.770103 0.000000 0.000000 0.000000 -105.990976 19.130517 -23.387376 -140.852500 -47.556631 -102.192479 -7.802846 -53.304236 46.258932 0.000000 0.000000 0.000000 7.125000 0.000000 0.000000 49.253035 70.994466 -32.908294
3.762629 17.421376 3.701481 -1.349484 -7.653439 21.466035 0.000000 0.000000 0.000000 -22.733773 -10.791879 -27.089400 1.874145 8.598847 24.548240 0.856741 -0.716034 -17.266270 0.250550 3.218851 8.888772 0.000000 0.000000 0.000000 0.566294 2.126406 5.982578 0.000000 0.000000 0.000000 -0.425985 -14.873753 -25.115346 -5.169329 -13.571703 41.548803 7.679673 1.280718 -11.491322 0.728134 1.248641 -13.908977 -3.439732 -0.081433 -8.400510 13.215441 18.098213 -2.451273 7.234411 22.701767 11.375035 1.500831 12.036717 4.471026 0.000000 0.000000 0.000000 132.381560 -10.642451 27.117147 15.325041 -24.596916 3.360060 27.196391 -35.359242 20.607007 0.000000 0.000000 0.000000 -7.125000 0.000000 0.000000 -0.851266 7.065570 -0.740235 0.000000 0.000000 0.000000 -106.000289 19.311260 -23.302033 -140.916604 -47.517378 -102.239726 -9.541869 -52.006889 46.346921 0.000000 0.000000 0.000000 7.125000 0.000000 0.000000 47.890143 71.652994 -32.503739
